<svg xmlns:dc="http://purl.org/dc/elements/1.1/"
                                                    xmlns:cc="http://creativecommons.org/ns#"
                                                    xmlns:rdf="http://www.w3.org/1999/02/22-rdf-syntax-ns#"
                                                    xmlns:svg="http://www.w3.org/2000/svg"
                                                    xmlns="http://www.w3.org/2000/svg"
                                                    xmlns:sodipodi="http://sodipodi.sourceforge.net/DTD/sodipodi-0.dtd"
                                                    xmlns:inkscape="http://www.inkscape.org/namespaces/inkscape"
                                                    version="1.1" x="0px" y="0px" viewBox="0 0 100 100"
                                                    preserveAspectRatio="none" width="100%" height="100%" class=""
                                                    fill="rgba(223, 73, 78, 1.0)">
                                                    <g transform="translate(0,-952.36218)">
                                                        <path
                                                            style="text-indent:0;text-transform:none;direction:ltr;block-progression:tb;baseline-shift:baseline;color:#000000;enable-background:accumulate;"
                                                            d="m 39.343752,964.25286 -10.6875,5.65625 31.71875,17.21875 10.374996,-6 -5.6875,-3.03125 a 1.0001,1.0001 0 0 1 -0.0937,-0.0312 l -0.0625,-0.0312 -25.562496,-13.78125 z m -12.78125,6.78125 -7.1875,3.8125 31.5625,17.75 7.4375,-4.28125 -31.8125,-17.28125 z m -9.28125,4.9375 -9.8125,5.1875 31.625,18.3125 9.875,-5.71875 -31.59375,-17.75 a 1.0001,1.0001 0 0 1 -0.03125,0 l -0.0625,-0.0312 z m -10.875,6.90625 0,36.65614 31.6875,18.3438 0,-36.6562 -31.6875,-18.34374 z m 65.374996,0 -10.468746,6.0625 -0.03125,7.71875 a 1.0001,1.0001 0 0 1 -0.5,0.84375 l -9.53125,5.59364 a 1.0001,1.0001 0 0 1 -1.53125,-0.8437 l -0.1875,-6.53119 -9.4375,5.46869 0,36.6875 23.156246,-13.4063 0,-26.5624 a 1.0001,1.0001 0 0 1 0.0937,-0.4375 1.0001,1.0001 0 0 1 0.0625,-0.0937 1.0001,1.0001 0 0 1 0.0625,-0.0625 1.0001,1.0001 0 0 1 0.0625,-0.0937 1.0001,1.0001 0 0 1 0.0625,-0.0625 1.0001,1.0001 0 0 1 0.1875,-0.125 1.0001,1.0001 0 0 1 0.46875,-0.125 l 7.53125,0 0,-14.03125 z m -12.468746,7.21875 -7.78125,4.5 0.15625,5.93749 7.59375,-4.46874 0.03125,-5.96875 z m 5.937496,8.8125 0,26.15619 a 1.0001,1.0001 0 0 1 0,0.125 l 0,15.2812 28.34375,0 0,-10.5937 a 1.0001,1.0001 0 0 1 0,-0.094 l 0,-0.062 0,-30.81239 -20.8125,0 -7.53125,0 z m 4.5,5.43739 a 1.001098,1.001098 0 0 1 0.0937,0 1.0001,1.0001 0 0 1 0.0937,0 l 12.8125,0 a 1.0001,1.0001 0 1 1 0,2 l -12.8125,0 a 1.0043849,1.0043849 0 0 1 -0.1875,-2 z m -0.0937,6.6563 a 1.0043849,1.0043849 0 0 1 0.0937,0 1.0001,1.0001 0 0 1 0.1875,0 l 17.78125,0 a 1.0001,1.0001 0 1 1 0,2 l -17.78125,0 a 1.0098393,1.0098393 0 0 1 -0.28125,-2 z m 0,6.625 a 1.0043849,1.0043849 0 0 1 0.0937,0 1.0001,1.0001 0 0 1 0.1875,0 l 17.78125,0 a 1.0001,1.0001 0 1 1 0,2 l -17.78125,0 a 1.0098393,1.0098393 0 0 1 -0.28125,-2 z m 22.46875,6.75 a 1.0001,1.0001 0 0 1 0.8125,1.75 l -7.59375,6.6875 a 1.0001,1.0001 0 0 1 -1.4375,-0.125 l -2.25,-2.8438 a 1.0004882,1.0004882 0 1 1 1.5625,-1.25 l 1.59375,2.0313 6.8125,-6 a 1.0001,1.0001 0 0 1 0.5,-0.25 z m -13.28125,0.625 a 1.0001,1.0001 0 0 1 0.0937,0 1.0001,1.0001 0 0 1 0.0937,0 l 7.0625,0 a 1.0001,1.0001 0 1 1 0,2 l -6.0625,0 0,7.5625 8.46875,0 0,-2 a 1.0001,1.0001 0 1 1 2,0 l 0,3 a 1.0001,1.0001 0 0 1 -1,1 l -10.46875,0 a 1.0001,1.0001 0 0 1 -1,-1 l 0,-9.5625 a 1.0001,1.0001 0 0 1 0.8125,-1 z"
                                                            fill-opacity="1" stroke="none" marker="none"
                                                            visibility="visible" display="inline" overflow="visible">
                                                        </path>
                                                    </g>
                                                </svg>